<svg width="65" height="65" viewBox="0 0 65 65" fill="none" xmlns="http://www.w3.org/2000/svg">
<g clip-path="url(#clip0_801_773)">
<mask id="mask0_801_773" style="mask-type:alpha" maskUnits="userSpaceOnUse" x="-1" y="4" width="66" height="57">
<path fill-rule="evenodd" clip-rule="evenodd" d="M64.9365 20.8838C64.9365 31.971 64.9365 43.0583 64.9365 54.1455C64.1131 57.4444 62.0396 59.4968 58.7158 60.3027C41.1963 60.3874 23.6768 60.3874 6.15723 60.3027C2.8335 59.4968 0.759934 57.4444 -0.0634766 54.1455C-0.0634766 43.0583 -0.0634766 31.971 -0.0634766 20.8838C0.759446 17.5853 2.83301 15.533 6.15723 14.7266C10.685 14.6631 15.213 14.6419 19.7412 14.6631C19.1148 11.2741 20.0458 8.41766 22.5342 6.09375C23.5668 5.34482 24.7094 4.83701 25.9619 4.57032C30.2783 4.48568 34.5947 4.48568 38.9111 4.57032C42.2331 5.3532 44.2854 7.4056 45.0684 10.7275C45.1318 12.0387 45.1529 13.3505 45.1318 14.6631C49.66 14.6419 54.188 14.6631 58.7158 14.7266C62.0396 15.5325 64.1131 17.5849 64.9365 20.8838ZM27.3584 9.58496C31.0023 9.52789 34.6417 9.59136 38.2764 9.77539C39.0593 10.0505 39.5882 10.5794 39.8633 11.3623C40.0279 12.4559 40.0914 13.5562 40.0537 14.6631C34.9756 14.6631 29.8975 14.6631 24.8193 14.6631C24.7816 13.5562 24.8451 12.4559 25.0098 11.3623C25.4434 10.2904 26.2264 9.69795 27.3584 9.58496ZM7.55371 19.7412C24.3999 19.679 41.2424 19.7425 58.0811 19.9316C59.1626 20.3374 59.7339 21.1203 59.7949 22.2803C59.9007 24.3996 59.8583 26.5156 59.668 28.6279C58.8996 31.893 56.8896 33.9454 53.6377 34.7852C52.4993 34.9256 51.3567 34.989 50.21 34.9756C50.21 33.2829 50.21 31.5901 50.21 29.8975C48.5173 29.8975 46.8245 29.8975 45.1318 29.8975C45.1318 31.5901 45.1318 33.2829 45.1318 34.9756C36.6683 34.9756 28.2048 34.9756 19.7412 34.9756C19.7412 33.2829 19.7412 31.5901 19.7412 29.8975C18.0485 29.8975 16.3558 29.8975 14.6631 29.8975C14.6631 31.5901 14.6631 33.2829 14.6631 34.9756C10.6306 35.4343 7.64717 33.9108 5.71289 30.4053C5.32261 29.4272 5.11103 28.4116 5.07812 27.3584C4.96401 25.4066 5.00632 23.4601 5.20508 21.5186C5.63875 20.4467 6.42162 19.8542 7.55371 19.7412ZM5.01465 37.6416C7.90616 39.668 11.1223 40.472 14.6631 40.0537C14.6631 41.7464 14.6631 43.4392 14.6631 45.1318C16.3558 45.1318 18.0485 45.1318 19.7412 45.1318C19.7412 43.4392 19.7412 41.7464 19.7412 40.0537C28.2048 40.0537 36.6683 40.0537 45.1318 40.0537C45.1318 41.7464 45.1318 43.4392 45.1318 45.1318C46.8245 45.1318 48.5173 45.1318 50.21 45.1318C50.21 43.4392 50.21 41.7464 50.21 40.0537C53.7319 40.48 56.9269 39.6759 59.7949 37.6416C59.8796 42.6775 59.8796 47.7132 59.7949 52.749C59.7339 53.909 59.1626 54.6919 58.0811 55.0977C41.2424 55.3079 24.3999 55.3503 7.55371 55.2246C6.05144 55.0765 5.22624 54.2513 5.07812 52.749C5.01465 47.7134 4.99349 42.6776 5.01465 37.6416Z" fill="black"/>
</mask>
<g mask="url(#mask0_801_773)">
<rect x="-0.0585938" y="-0.467773" width="65.0585" height="65.468" fill="url(#paint0_linear_801_773)"/>
</g>
</g>
<defs>
<linearGradient id="paint0_linear_801_773" x1="-4.73063" y1="-0.454626" x2="43.3712" y2="73.3242" gradientUnits="userSpaceOnUse">
<stop stop-color="#1BA5D9"/>
<stop offset="1" stop-color="#6DBE7F"/>
</linearGradient>
<clipPath id="clip0_801_773">
<rect width="65" height="65" fill="white"/>
</clipPath>
</defs>
</svg>
