<svg width="31" height="30" viewBox="0 0 31 30" fill="none" xmlns="http://www.w3.org/2000/svg">
<path fill-rule="evenodd" clip-rule="evenodd" d="M15.0629 30C23.382 30 30.1259 23.2843 30.1259 15C30.1259 6.71573 23.382 0 15.0629 0C6.74391 0 0 6.71573 0 15C0 16.3615 0.182144 17.6806 0.523491 18.9345C0.623464 18.9588 0.75082 18.9934 0.908664 19.0395L0.50834 12.7669C0.50834 12.6519 0.703096 12.5966 0.881526 12.546C0.979458 12.5182 1.07247 12.4918 1.12567 12.4577C1.27094 12.3662 4.26258 13.454 4.42239 13.5262L8.248 15.2495C9.23588 14.6285 10.4175 14.3782 11.5797 14.5467L15.0566 10.3252C15.1002 6.95572 17.8604 4.24088 21.2551 4.23606C24.4269 4.26976 27.0564 6.67653 27.3567 9.81015C27.6763 13.1989 25.1775 16.2025 21.7684 16.525L15.9767 20.6406C15.6232 22.4457 14.3254 23.9235 12.5724 24.5107C9.88478 25.4157 6.96472 23.9812 6.05917 21.3049L4.04467 20.6406C3.90491 20.5964 1.4955 19.5991 0.577994 19.1294C2.3789 25.4056 8.18213 30 15.0629 30ZM24.3546 10.3973C24.3546 12.0987 22.967 13.478 21.2553 13.478C19.5436 13.478 18.156 12.0987 18.156 10.3973C18.156 8.69591 19.5436 7.31664 21.2553 7.31664C22.967 7.31664 24.3546 8.69591 24.3546 10.3973ZM23.3236 10.3973C23.3236 11.5325 22.3978 12.4527 21.2557 12.4527C20.1137 12.4527 19.1879 11.5325 19.1879 10.3973C19.1879 9.26217 20.1137 8.34195 21.2557 8.34195C22.3978 8.34195 23.3236 9.26217 23.3236 10.3973ZM9.58042 22.412C9.99687 22.6142 10.4569 22.7201 10.9218 22.7201C11.2753 22.7201 11.6191 22.6623 11.9581 22.5516C12.7377 22.282 13.3721 21.7189 13.7304 20.9824C14.4761 19.4469 13.8272 17.6081 12.2873 16.8668C12.0259 16.7417 11.7208 16.8476 11.5949 17.1027C11.469 17.3626 11.5755 17.6659 11.8322 17.791C11.8661 17.8055 11.9 17.8199 11.9338 17.8392C12.9508 18.359 13.343 19.5961 12.82 20.6069C12.297 21.6178 11.0477 22.0077 10.0356 21.4878C9.77412 21.3627 9.46905 21.4686 9.34314 21.7237C9.21724 21.9836 9.32377 22.2869 9.58042 22.412Z" fill="#FFB548"/>
</svg>
