<svg width="65" height="65" viewBox="0 0 65 65" fill="none" xmlns="http://www.w3.org/2000/svg">
<mask id="mask0_801_755" style="mask-type:alpha" maskUnits="userSpaceOnUse" x="0" y="0" width="65" height="65">
<g clip-path="url(#clip0_801_755)">
<path fill-rule="evenodd" clip-rule="evenodd" d="M26.2158 -0.0634766C26.7659 -0.0634766 27.3161 -0.0634766 27.8662 -0.0634766C29.6152 0.845999 30.0596 2.20016 29.1992 3.99902C25.5209 9.05267 21.8182 14.0885 18.0908 19.1064C27.7813 19.2546 37.472 19.2757 47.1631 19.1699C43.418 14.0706 39.6729 8.97136 35.9277 3.87207C35.1818 2.06565 35.6685 0.753803 37.3877 -0.0634766C37.8955 -0.0634766 38.4033 -0.0634766 38.9111 -0.0634766C39.5639 0.190842 40.0929 0.614019 40.498 1.20605C44.8534 7.19069 49.2333 13.1574 53.6377 19.1064C56.853 19.2122 60.0691 19.2757 63.2861 19.2969C64.0419 19.5032 64.592 19.9475 64.9365 20.6299C64.9365 24.7771 64.9365 28.9241 64.9365 33.0713C64.664 33.6186 64.2408 34.0206 63.667 34.2773C62.7471 34.4539 61.8161 34.5174 60.874 34.4678C60.58 37.4315 60.2626 40.3937 59.9219 43.3545C59.8075 45.5005 58.6861 46.4527 56.5576 46.2109C55.0459 45.6606 54.4322 44.5815 54.7168 42.9736C55.1545 38.9919 55.6201 35.0139 56.1133 31.04C56.3403 30.352 56.7846 29.8653 57.4463 29.5801C58.2811 29.4053 59.1275 29.3418 59.9854 29.3896C59.9854 27.697 59.9854 26.0042 59.9854 24.3115C41.7041 24.3115 23.4229 24.3115 5.1416 24.3115C5.1416 26.0042 5.1416 27.697 5.1416 29.3896C19.8259 29.3684 34.5102 29.3896 49.1943 29.4531C50.6764 30.0253 51.2477 31.1044 50.9082 32.6904C50.6755 33.6003 50.1042 34.1716 49.1943 34.4043C35.9487 34.4255 22.7033 34.489 9.45801 34.5947C10.346 41.6142 11.2135 48.639 12.0605 55.6689C12.7098 58.186 14.339 59.5615 16.9482 59.7949C27.7842 59.9188 38.6176 59.8764 49.4482 59.668C51.8508 58.9155 53.1838 57.2863 53.4473 54.7803C53.9869 53.5212 54.9391 52.9499 56.3037 53.0664C57.3431 53.2168 58.0413 53.7881 58.3984 54.7803C58.3963 58.9531 56.5555 62.021 52.876 63.9844C51.9087 64.3703 50.9355 64.6877 49.9561 64.9365C38.4456 64.9365 26.9353 64.9365 15.4248 64.9365C10.6724 63.8867 7.81597 60.9668 6.85547 56.1768C5.97736 48.9404 5.10985 41.7041 4.25293 34.4678C3.44778 34.4888 2.64375 34.4678 1.84082 34.4043C1.52021 34.3505 1.2663 34.2024 1.0791 33.96C1.01905 33.7815 0.892092 33.6968 0.698242 33.7061C0.413132 33.4332 0.222702 33.0947 0.126953 32.6904C0.0423177 28.7972 0.0423177 24.904 0.126953 21.0107C0.180757 20.6902 0.328868 20.4363 0.571289 20.249C0.782878 20.1221 0.952148 19.9528 1.0791 19.7412C1.2663 19.4987 1.52021 19.3507 1.84082 19.2969C5.10011 19.2757 8.35857 19.2122 11.6162 19.1064C16.0563 12.9949 20.5207 6.90112 25.0098 0.825195C25.3993 0.497326 25.8013 0.201103 26.2158 -0.0634766Z" fill="#020404"/>
<path opacity="0.957" fill-rule="evenodd" clip-rule="evenodd" d="M1.0791 19.7412C0.952148 19.9528 0.782878 20.1221 0.571289 20.249C0.613606 19.9528 0.782878 19.7835 1.0791 19.7412Z" fill="#2E949C"/>
<path opacity="0.6" fill-rule="evenodd" clip-rule="evenodd" d="M0.698242 33.7058C0.892092 33.6965 1.01905 33.7812 1.0791 33.9597C0.885252 33.9689 0.758299 33.8843 0.698242 33.7058Z" fill="#25BDCB"/>
<path fill-rule="evenodd" clip-rule="evenodd" d="M31.0401 54.2725C30.98 54.094 30.8531 54.0093 30.6592 54.0186C30.3741 53.7457 30.1836 53.4071 30.0879 53.0029C30.0032 49.1097 30.0032 45.2165 30.0879 41.3232C30.4932 40.1569 31.3184 39.5646 32.5635 39.5459C33.8087 39.5646 34.6339 40.1569 35.0391 41.3232C35.1238 45.2165 35.1238 49.1097 35.0391 53.0029C34.4669 54.485 33.3878 55.0563 31.8018 54.7168C31.4812 54.663 31.2273 54.5149 31.0401 54.2725Z" fill="#020405"/>
<path opacity="0.999" fill-rule="evenodd" clip-rule="evenodd" d="M41.958 39.5456C43.5432 39.2688 44.6223 39.8612 45.1953 41.3229C45.28 45.2162 45.28 49.1093 45.1953 53.0026C44.6232 54.4847 43.5441 55.056 41.958 54.7165C41.0482 54.4838 40.4769 53.9125 40.2442 53.0026C40.1595 49.1093 40.1595 45.2162 40.2442 41.3229C40.5002 40.4112 41.0715 39.8188 41.958 39.5456Z" fill="#010102"/>
<path fill-rule="evenodd" clip-rule="evenodd" d="M21.6455 39.5456C23.2307 39.2688 24.3098 39.8612 24.8828 41.3229C24.9675 45.2162 24.9675 49.1093 24.8828 53.0026C24.3107 54.4847 23.2316 55.056 21.6455 54.7165C20.7357 54.4838 20.1644 53.9125 19.9317 53.0026C19.847 49.1093 19.847 45.2162 19.9317 41.3229C20.1877 40.4112 20.759 39.8188 21.6455 39.5456Z" fill="#000001"/>
<path opacity="0.722" fill-rule="evenodd" clip-rule="evenodd" d="M30.6592 54.0183C30.853 54.009 30.98 54.0937 31.04 54.2722C30.8462 54.2814 30.7192 54.1968 30.6592 54.0183Z" fill="#28819D"/>
</g>
</mask>
<g mask="url(#mask0_801_755)">
<rect width="65" height="68.1418" fill="url(#paint0_linear_801_755)"/>
<rect width="65" height="68.1418" fill="url(#paint1_linear_801_755)"/>
</g>
<defs>
<linearGradient id="paint0_linear_801_755" x1="32.5" y1="0" x2="32.5" y2="68.1418" gradientUnits="userSpaceOnUse">
<stop stop-color="#1BA5D9"/>
<stop offset="1" stop-color="#6DBE7F"/>
</linearGradient>
<linearGradient id="paint1_linear_801_755" x1="32.5" y1="0" x2="32.5" y2="68.1418" gradientUnits="userSpaceOnUse">
<stop stop-color="#1BA5D9"/>
<stop offset="1" stop-color="#6DBE7F"/>
</linearGradient>
<clipPath id="clip0_801_755">
<rect width="65" height="65" fill="white"/>
</clipPath>
</defs>
</svg>
