<svg width="65" height="65" viewBox="0 0 65 65" fill="none" xmlns="http://www.w3.org/2000/svg">
<mask id="mask0_801_743" style="mask-type:alpha" maskUnits="userSpaceOnUse" x="0" y="0" width="65" height="65">
<g clip-path="url(#clip0_801_743)">
<path fill-rule="evenodd" clip-rule="evenodd" d="M54.1455 -0.0634766C56.346 -0.0634766 58.5466 -0.0634766 60.7471 -0.0634766C61.4045 0.049833 62.0816 0.155627 62.7783 0.253906C63.5833 0.46653 64.1546 0.953184 64.4922 1.71387C64.6905 2.52621 64.8386 3.33025 64.9365 4.12598C64.9365 6.32649 64.9365 8.52702 64.9365 10.7275C64.0411 22.1032 59.3438 31.5612 50.8447 39.1016C49.4929 40.1583 48.0964 41.1529 46.6553 42.085C48.7532 46.9682 48.2241 51.5385 45.0683 55.7959C42.5505 58.3138 40.0325 60.8317 37.5146 63.3496C35.8868 64.1465 34.5961 63.7868 33.6426 62.2705C33.5165 61.9013 33.453 61.5205 33.4521 61.1279C34.2315 56.7497 33.3216 52.7719 30.7226 49.1943C29.1997 49.8149 27.6552 50.3862 26.0888 50.9082C23.4863 51.5891 21.1165 51.1235 18.9795 49.5117C17.7734 48.3057 16.5674 47.0996 15.3613 45.8936C13.8551 43.9306 13.3473 41.7301 13.8379 39.292C14.3767 37.5484 14.9902 35.8346 15.6787 34.1504C12.1008 31.5513 8.12293 30.6415 3.74509 31.4209C1.8525 31.2843 0.984987 30.2687 1.14255 28.374C1.19814 28.0089 1.3251 27.6703 1.52341 27.3584C4.04131 24.8405 6.55923 22.3225 9.07713 19.8047C13.3345 16.6489 17.9048 16.1199 22.7881 18.2178C29.075 8.65763 37.8772 2.79662 49.1943 0.634766C50.8563 0.349568 52.5067 0.11682 54.1455 -0.0634766ZM54.3994 5.1416C56.1767 5.1416 57.9541 5.1416 59.7314 5.1416C59.9505 9.18512 59.5485 13.163 58.5254 17.0752C54.9495 13.4993 51.3737 9.92351 47.7978 6.34766C49.981 5.7654 52.1815 5.36338 54.3994 5.1416ZM42.0849 8.18848C46.9832 12.8962 51.8286 17.6781 56.6211 22.5342C53.9798 28.9706 49.6846 34.0275 43.7353 37.7051C39.9222 39.9077 35.9442 41.7697 31.8017 43.291C29.1715 44.3159 26.5055 45.2257 23.8037 46.0205C23.3977 46.005 23.0168 45.8993 22.6611 45.7031C21.5435 44.7126 20.4644 43.6758 19.4238 42.5928C18.9423 41.9943 18.773 41.3173 18.916 40.5615C20.7643 34.9185 22.9648 29.4171 25.5176 24.0576C29.1635 16.7932 34.686 11.5035 42.0849 8.18848ZM16.1865 22.1533C17.5426 22.0449 18.8544 22.2353 20.122 22.7246C20.1801 22.7772 20.2225 22.8406 20.249 22.915C19.3159 24.9502 18.3849 26.9815 17.456 29.0088C15.186 27.5994 12.7316 26.6472 10.0928 26.1523C11.1221 24.9953 12.2647 23.9797 13.5205 23.1055C14.3831 22.6701 15.2718 22.3528 16.1865 22.1533ZM36.0095 22.1533C37.4864 21.9498 32.3834 26.9855 32.8954 28.374C33.1016 30.1618 39.4372 29.132 37.6654 29.4601C35.3367 28.9076 34.3994 24.8804 35.4163 22.7246C35.8167 22.3422 36.0095 20.0032 36.0095 22.1533ZM41.831 44.624C41.9575 44.6131 42.0632 44.6555 42.1484 44.751C43.1332 47.367 42.8369 49.8215 41.2597 52.1143C40.4597 53.0414 39.6134 53.9301 38.7207 54.7803C38.2258 52.1414 37.2737 49.687 35.8642 47.417C37.8761 46.5166 39.865 45.5857 41.831 44.624Z" fill="black"/>
<path opacity="0.998" fill-rule="evenodd" clip-rule="evenodd" d="M37.5146 18.4717C42.2798 18.1837 45.2209 20.3419 46.3379 24.9463C46.6648 29.4792 44.6546 32.378 40.3076 33.6426C36.2808 34.1793 33.3821 32.6346 31.6113 29.0088C30.3905 25.0964 31.4274 21.9438 34.7217 19.5508C35.6253 19.0741 36.5563 18.7145 37.5146 18.4717ZM38.1494 23.6768C37.6611 23.8869 37.2168 24.1831 36.8164 24.5655C35.7995 26.7213 36.4555 28.0755 38.7842 28.628C40.556 28.2998 41.339 27.2419 41.1328 25.4542C40.6208 24.0657 39.6264 23.4733 38.1494 23.6768Z" fill="black"/>
<path fill-rule="evenodd" clip-rule="evenodd" d="M14.1553 49.0672C14.252 49.2909 14.4214 49.4178 14.6631 49.4481C17.0384 51.6253 17.8213 54.2913 17.0117 57.4461C16.1983 59.9099 14.5691 61.5815 12.124 62.4608C9.25105 63.5065 6.33113 64.3317 3.36426 64.9363C2.77181 64.9363 2.17937 64.9363 1.58691 64.9363C1.29891 64.749 1.00268 64.5585 0.698242 64.365C0.412351 64.0177 0.158445 63.658 -0.0634766 63.2859C-0.0634766 62.6935 -0.0634766 62.1011 -0.0634766 61.5086C0.51514 58.7724 1.2557 56.0641 2.1582 53.3836C4.03088 48.4376 7.52209 46.6815 12.6318 48.115C13.212 48.3403 13.7198 48.6576 14.1553 49.0672ZM9.07715 52.7488C11.4005 52.765 12.3526 53.9075 11.9336 56.1766C11.6484 56.8383 11.1617 57.2826 10.4736 57.5096C8.97041 58.1318 7.44697 58.5761 5.90332 58.8426C6.32628 57.341 6.81293 55.8598 7.36328 54.3992C7.67335 53.5598 8.24464 53.0097 9.07715 52.7488Z" fill="black"/>
<path opacity="0.612" fill-rule="evenodd" clip-rule="evenodd" d="M14.1553 49.0674C14.397 49.0976 14.5663 49.2246 14.6631 49.4482C14.4214 49.418 14.252 49.2911 14.1553 49.0674Z" fill="#283143"/>
</g>
</mask>
<g mask="url(#mask0_801_743)">
<path d="M-0.0494385 -0.0498047H69.9924V70.4369H-0.0494385V-0.0498047Z" fill="url(#paint0_linear_801_743)"/>
<path d="M-0.0493164 -0.0498047H69.9925V70.4369H-0.0493164V-0.0498047Z" fill="url(#paint1_linear_801_743)"/>
</g>
<defs>
<linearGradient id="paint0_linear_801_743" x1="34.9962" y1="-10.5289" x2="30.0779" y2="74.7373" gradientUnits="userSpaceOnUse">
<stop stop-color="#3D8A65"/>
<stop offset="0.546875" stop-color="#45765E"/>
<stop offset="0.9999" stop-color="#1BA5D9"/>
</linearGradient>
<linearGradient id="paint1_linear_801_743" x1="34.9963" y1="-10.5289" x2="30.0781" y2="74.7373" gradientUnits="userSpaceOnUse">
<stop stop-color="#1BA5D9"/>
<stop offset="0.9999" stop-color="#6DBE7F"/>
</linearGradient>
<clipPath id="clip0_801_743">
<rect width="65" height="65" fill="white"/>
</clipPath>
</defs>
</svg>
